# Blender v2.76 (sub 0) OBJ File: ''
# www.blender.org
mtllib cube.mtl
o Cube.001
v 0.165619 0.086152 -2.345128
v 1.094762 0.086152 -1.216480
v -0.165619 0.086152 -0.178889
v -1.094762 0.086152 -1.307537
v 0.165620 1.616544 -2.345127
v -1.094762 1.616544 -1.307537
v -0.165619 1.616544 -0.178889
v 1.094762 1.616544 -1.216479
vn -0.000000 -1.000000 -0.000000
vn 0.000000 1.000000 0.000000
vn 0.772000 0.000000 -0.635600
vn 0.635600 -0.000000 0.772000
vn -0.772000 -0.000000 0.635600
vn -0.635600 0.000000 -0.772000
usemtl Material.001
s 1
f 1//1 2//1 3//1 4//1
f 5//2 6//2 7//2 8//2
f 1//3 5//3 8//3 2//3
f 2//4 8//4 7//4 3//4
f 3//5 7//5 6//5 4//5
f 5//6 1//6 4//6 6//6
